<svg id="Ebene_1" data-name="Ebene 1" xmlns="http://www.w3.org/2000/svg" viewBox="0 0 694.488 694.488"><defs><style>.cls-1{fill:#306bb3;}.cls-2{fill:#2c5da7;}.cls-3{fill:#fff;}.cls-4{fill:#8fb1de;}</style></defs><title>icon</title><g id="Ebene_3" data-name="Ebene 3"><path class="cls-1" d="M355.865,701.575h0C164.086,701.575,8.621,546.11,8.621,354.331h0C8.621,162.552,164.086,7.087,355.865,7.087h0c191.779,0,347.244,155.465,347.244,347.244h0C703.109,546.11,547.644,701.575,355.865,701.575Z" transform="translate(-8.621 -7.087)"/></g><path class="cls-2" d="M486.517,237.957H267.434l-70.968-11.093c.164-14.918-50.578-16.81-19.722,38.7l32.816,59.33V453.664a57.88,57.88,0,0,0,57.874,57.874H486.517a57.879,57.879,0,0,0,57.874-57.874V295.831A57.871,57.871,0,0,0,486.517,237.957Z" transform="translate(-8.621 -7.087)"/><path class="cls-3" d="M486.517,217.54H180.664a13.311,13.311,0,0,0-11.393,20.2l40.3,66.735V433.247a57.879,57.879,0,0,0,57.874,57.874H486.531a57.88,57.88,0,0,0,57.874-57.874V275.414A57.892,57.892,0,0,0,486.517,217.54Z" transform="translate(-8.621 -7.087)"/><path class="cls-4" d="M485.469,310.775H269.054a14.29,14.29,0,0,1-14.292-14.291h0a14.29,14.29,0,0,1,14.292-14.292H485.469a14.29,14.29,0,0,1,14.291,14.292h0A14.289,14.289,0,0,1,485.469,310.775Z" transform="translate(-8.621 -7.087)"/><path class="cls-4" d="M485.469,368.622H269.054a14.29,14.29,0,0,1-14.292-14.291h0a14.29,14.29,0,0,1,14.292-14.292H485.469a14.29,14.29,0,0,1,14.291,14.292h0A14.289,14.289,0,0,1,485.469,368.622Z" transform="translate(-8.621 -7.087)"/><path class="cls-4" d="M428.3,426.469H268.5A14.29,14.29,0,0,1,254.2,412.178h0A14.29,14.29,0,0,1,268.5,397.886H428.3a14.29,14.29,0,0,1,14.291,14.292h0A14.289,14.289,0,0,1,428.3,426.469Z" transform="translate(-8.621 -7.087)"/></svg>